<?xml version="1.0" encoding="UTF-8" standalone="no"?>
<svg width="300px" height="300px" viewBox="0 0 300 300" version="1.1" xmlns="http://www.w3.org/2000/svg" xmlns:xlink="http://www.w3.org/1999/xlink" xmlns:sketch="http://www.bohemiancoding.com/sketch/ns">
    <!-- Generator: Sketch 3.0.4 (8053) - http://www.bohemiancoding.com/sketch -->
    <title>calendarcircle</title>
    <desc>Created with Sketch.</desc>
    <defs></defs>
    <g id="Page-1" stroke="none" stroke-width="1" fill="none" fill-rule="evenodd" sketch:type="MSPage">
        <g id="Desktop" sketch:type="MSArtboardGroup" transform="translate(-610.000000, -905.000000)">
            <g id="Block-1" sketch:type="MSLayerGroup" transform="translate(72.000000, 892.000000)">
                <g id="calendarcircle" transform="translate(538.000000, 13.000000)" sketch:type="MSShapeGroup">
                    <rect id="Rectangle-2"  fill="#5cb85c" x="0" y="0" width="300" height="300" rx="1500"></rect>
                    <path d="M193.148235,84.9677212 C207.089394,87.2275542 216.922312,90.3915701 219.399811,93.4223971 C224.000001,99.0500005 222.904811,113.225332 219.729594,120.827524 C219.729594,120.827524 225.363468,132.751895 224.287599,158.15448 C223.21173,183.557064 217.258718,204.085225 217.258718,204.085225 C216.56305,206.749348 213.851664,209.554113 211.206304,210.302074 C211.206304,210.302074 183.756443,219.159046 150.617269,219.159046 C117.478094,219.159046 89.1009335,210.270167 89.1009335,210.270167 C86.4492542,209.518441 83.804931,206.734599 83.2071576,204.026772 C83.2071576,204.026772 76.8055317,176.850738 76.0183685,158.235398 C75.2312053,139.620058 80.5805406,120.957322 80.5805406,120.957322 C77.178525,113.43415 76,99.0499999 80.6659499,93.8033965 C83.1556817,91.0038304 92.9857112,87.8020831 106.859884,85.410057 L106.859884,85.410057 C107.130735,98.8315657 109.604755,109.3 120.194444,109.3 C131.5,109.3 133.555556,97.3683886 133.555556,82.65 C133.555556,82.5518453 133.55529,82.4538145 133.554759,82.3559103 C138.961018,82.0150798 144.578918,81.8185688 150.309311,81.8028316 C155.833685,81.7876603 161.241044,81.9307039 166.446271,82.2047706 C166.445055,82.3528897 166.444444,82.5013026 166.444444,82.65 C166.444444,97.3683886 168.5,109.3 179.805556,109.3 C190.511303,109.3 192.922518,98.6008494 193.148235,84.9677212 L193.148235,84.9677212 Z M150.377387,125.524967 C179.998332,125.524967 207.65397,119.759677 207.65397,119.759677 C208.73487,119.547208 209.898612,120.222178 210.232149,121.270235 C210.232149,121.270235 215.571869,135.871744 215.571868,157.870801 C215.571867,179.869859 210.785205,197.065827 210.785205,197.065827 C210.136769,199.744337 207.436558,202.448022 204.749835,203.067466 C204.749835,203.067466 179.328071,209.749997 150.348789,209.749997 C121.369508,209.749997 97.2877538,203.109821 97.2877538,203.109821 C94.6128679,202.450325 91.8978964,199.744139 91.2588304,197.065085 C91.2588304,197.065085 86.034213,177.632422 85.551006,158.229266 C85.0677989,138.826111 89.9010165,121.297921 89.9010165,121.297921 C90.170461,120.235903 91.2620611,119.545872 92.3435559,119.75042 C92.3435559,119.75042 120.756442,125.524967 150.377387,125.524967 Z M120.194444,105.2 C128.021368,105.2 129.444444,95.3485618 129.444444,85.725 C129.444444,76.1014382 125.303078,70.35 120.194444,70.35 C115.085811,70.35 110.944444,76.1014382 110.944444,85.725 C110.944444,95.3485618 112.367521,105.2 120.194444,105.2 Z M179.805556,105.2 C187.632479,105.2 189.055556,95.3485618 189.055556,85.725 C189.055556,76.1014382 184.914189,70.35 179.805556,70.35 C174.696922,70.35 170.555556,76.1014382 170.555556,85.725 C170.555556,95.3485618 171.978632,105.2 179.805556,105.2 Z M173.930508,135.070447 C166.430892,135.070448 160.311104,140.207991 152.991183,150.040492 C150.696138,153.123317 148.897211,155.76624 144.867066,161.85617 C134.697929,177.222695 129.631668,182.963107 126.383384,182.963107 C118.341474,182.963108 113.26518,180.803967 110.779637,179.401218 C110.040337,178.379888 109.036981,177.752282 107.931889,177.752282 C105.659054,177.752282 103.816557,180.407049 103.816557,183.681871 C103.816557,186.729689 105.412472,189.240435 107.46592,189.573869 C107.825303,190.365468 108.314152,190.85744 108.949429,190.857441 C109.066964,190.857441 114.472276,195.594044 126.383384,195.594043 C132.360837,195.594043 137.581897,192.143789 143.034718,185.965379 C146.604731,181.920316 149.337655,178.049057 155.452916,168.808321 C159.350228,162.919115 161.069083,160.39383 163.175358,157.564571 C167.368776,151.931752 170.674215,148.814212 172.818007,147.951086 C173.284537,148.270302 173.836141,148.768825 174.146882,149.160208 L173.890139,148.836836 C174.969731,150.196596 175.022987,152.483016 174.00595,153.939741 L173.801006,154.233289 C172.784034,155.689921 173.362093,156.880263 175.092282,156.891784 L176.377076,156.90034 C182.136535,156.938692 191.094107,154.924074 196.369918,152.40047 L199.382971,150.959222 C200.427914,150.459389 200.809083,149.228439 200.21596,148.218608 L198.551878,145.385402 C195.596162,140.353104 189.309571,133.694592 184.507401,130.508119 L183.418518,129.785593 C181.970726,128.824913 180.845607,129.487178 180.898702,131.334922 C180.942114,132.845671 180.010349,134.493454 178.717881,135.33588 C177.293405,135.168301 175.702824,135.070447 173.930508,135.070447 Z M161.247088,171.541041 L153.282638,181.916418 C159.530089,189.624568 165.076852,193.63104 171.699663,193.63104 C173.091983,193.63104 174.372143,193.570649 175.547722,193.463505 C175.911579,193.520522 176.270317,193.607674 176.536879,193.711065 L176.312896,193.624189 C177.947215,194.25809 179.230691,196.21272 179.179912,197.979857 C179.126817,199.827601 180.251936,200.489866 181.699728,199.529186 L182.78861,198.80666 C187.590781,195.620187 193.877372,188.961675 196.833088,183.929377 L198.497169,181.096171 C199.090293,180.08634 198.709124,178.85539 197.664181,178.355557 L194.651128,176.914309 C189.375316,174.390705 180.417745,172.376087 174.658286,172.414439 L173.373492,172.422995 C171.643303,172.434516 171.065244,173.624859 172.082216,175.081491 L172.28716,175.375038 C173.304197,176.831763 173.25094,179.118183 172.171349,180.477943 L172.428092,180.154572 C172.220619,180.415887 171.905772,180.724965 171.580563,180.996545 C169.58619,180.879214 166.00432,177.85833 161.247088,171.541041 Z M110.156165,141.268532 C110.273699,141.268532 115.679011,136.53193 127.59012,136.531931 C133.567572,136.531931 138.788632,139.982184 144.241453,146.160595 C144.960851,146.97572 145.646257,147.783789 146.332199,148.630158 L138.479969,159.296958 C133.137697,152.073301 129.903043,149.162866 127.590119,149.162866 C119.28652,149.162866 114.129225,151.439526 111.7379,152.836215 C111.454056,153.077361 111.14837,153.270823 110.826147,153.408954 C110.393451,153.702725 110.17291,153.889314 110.156183,153.899468 C109.492535,154.302329 108.954596,154.071307 108.544285,153.437613 C106.808802,152.741317 105.535347,150.447321 105.535347,147.72477 C105.535347,144.748238 107.05748,142.283949 109.041389,141.859721 C109.360646,141.484241 109.732083,141.268533 110.156165,141.268532 Z" id="calendar-icon-2"
                          fill="#ffffff"> \*fill="#3B899A"*\ ></path>
                </g>
            </g>
        </g>
    </g>
</svg>